<?xml version="1.0" encoding="UTF-8" standalone="no"?>
<!-- Created with Inkscape (http://www.inkscape.org/) -->

<svg
   version="1.1"
   id="svg9"
   width="512"
   height="512"
   viewBox="0 0 512 512"
   sodipodi:docname="charging.svg"
   inkscape:version="1.1.1 (3bf5ae0d25, 2021-09-20)"
   xmlns:inkscape="http://www.inkscape.org/namespaces/inkscape"
   xmlns:sodipodi="http://sodipodi.sourceforge.net/DTD/sodipodi-0.dtd"
   xmlns="http://www.w3.org/2000/svg"
   xmlns:svg="http://www.w3.org/2000/svg">
  <defs
     id="defs13" />
  <sodipodi:namedview
     id="namedview11"
     pagecolor="#505050"
     bordercolor="#ffffff"
     borderopacity="1"
     inkscape:pageshadow="0"
     inkscape:pageopacity="0"
     inkscape:pagecheckerboard="1"
     showgrid="false"
     inkscape:zoom="1.25"
     inkscape:cx="255.6"
     inkscape:cy="256"
     inkscape:window-width="1440"
     inkscape:window-height="890"
     inkscape:window-x="-6"
     inkscape:window-y="-6"
     inkscape:window-maximized="1"
     inkscape:current-layer="g15" />
  <g
     inkscape:groupmode="layer"
     inkscape:label="Image"
     id="g15">
    <path
       style="fill:#000000;stroke-width:0.978892"
       d="m 13.548144,506.56535 c -5.9047156,-2.58903 -8.6301107,-10.3419 -5.7707425,-16.41592 2.3929335,-5.08318 6.5002285,-7.0249 15.9131095,-7.52292 l 8.065075,-0.4267 V 253.02955 23.859291 l 2.525445,-5.108572 c 1.388998,-2.809714 4.106583,-6.422332 6.039079,-8.028039 7.558803,-6.2805989 -1.702613,-5.9227455 153.28357,-5.9227455 154.98618,0 145.72476,-0.3578534 153.28357,5.9227455 1.93249,1.605707 4.65008,5.218325 6.03908,8.028039 l 2.52544,5.108572 V 228.0911 432.32292 h 16.52682 c 9.08975,0 18.85182,-0.48875 21.69349,-1.08609 13.41316,-2.81959 24.95088,-11.76151 30.8128,-23.88041 6.17873,-12.77392 6.01075,-9.71366 6.02659,-109.78953 l 0.0144,-91.02092 -7.20934,-1.17233 c -15.90054,-2.58561 -29.758,-12.77691 -36.6801,-26.97594 -2.14343,-4.39672 -4.33315,-10.37629 -4.86605,-13.28794 -0.53915,-2.94578 -0.96892,-22.88948 -0.96892,-44.96362 V 80.476416 h 12.67485 12.67485 V 59.788569 c 0,-22.801049 0.49299,-25.168907 5.81802,-27.944684 3.78074,-1.970784 9.29713,-1.890576 12.78432,0.185885 5.20151,3.097256 5.77237,5.886333 5.77237,28.20184 v 20.244806 h 12.67486 12.67485 V 60.23161 c 0,-22.315507 0.57086,-25.104584 5.77237,-28.20184 3.48719,-2.076461 9.00358,-2.156669 12.78432,-0.185885 5.32502,2.775777 5.818,5.143635 5.818,27.944684 V 80.476416 H 492.92515 505.6 v 39.669724 c 0,22.7106 -0.42315,41.9329 -0.9898,44.96362 -3.76356,20.12924 -21.09065,36.94097 -41.49267,40.25858 l -7.17675,1.16702 -0.31102,93.48325 c -0.30816,92.62237 -0.33072,93.5577 -2.4497,101.56775 -8.44314,31.91623 -29.77911,51.35047 -60.65315,55.24696 -4.544,0.57348 -14.74482,1.04269 -22.66849,1.04269 h -14.40665 v 12.28515 12.28514 l 6.09368,0.006 c 8.07251,0.007 12.45358,1.34181 15.73343,4.79269 5.43812,5.72173 3.74417,15.4851 -3.30233,19.03348 -3.212,1.61744 -13.80745,1.71621 -180.37287,1.68144 C 45.295778,507.92846 16.14212,507.70273 13.548144,506.56535 Z M 331.07706,256.39967 V 30.353032 H 193.60368 56.130299 V 256.39967 482.4463 H 193.60368 331.07706 Z M 156.55412,456.50603 c 0,-0.34399 5.48431,-22.72529 12.18735,-49.73621 6.70305,-27.01092 12.18736,-49.33101 12.18736,-49.60021 0,-0.26918 -11.01263,-0.60758 -24.47252,-0.752 l -24.47251,-0.26258 48.9729,-61.70854 c 26.9351,-33.93969 49.10785,-61.5725 49.27279,-61.40624 0.16494,0.16626 -5.1441,22.18565 -11.79786,48.93199 -6.65376,26.74633 -12.11019,48.96139 -12.12542,49.3668 -0.0152,0.40541 10.94094,0.73711 24.34703,0.73711 13.40609,0 24.37471,0.22425 24.37471,0.49833 0,0.27409 -22.15661,28.41154 -49.23692,62.52768 -27.0803,34.11612 -49.23691,61.74788 -49.23691,61.40387 z M 81.704267,138.1396 81.967494,70.002909 84.779273,66.287381 c 1.546478,-2.043541 4.617692,-4.5422 6.82492,-5.552584 3.834279,-1.75519 8.380202,-1.837064 101.999487,-1.837064 93.61929,0 98.1652,0.08188 101.99948,1.837064 2.20723,1.010384 5.27845,3.509043 6.82492,5.552584 l 2.81178,3.715528 0.26323,68.136691 0.26324,68.13668 H 193.60368 81.44104 Z M 281.35264,132.56542 V 84.407662 h -87.74896 -87.74897 v 48.157758 48.15776 h 87.74897 87.74896 z m -104.5617,41.26949 c -3.71634,-3.74616 -3.88564,-4.17938 -3.44398,-8.81269 0.25546,-2.68008 1.07637,-5.61605 1.82424,-6.52439 1.11662,-1.35626 20.34212,-17.29519 58.2012,-48.25184 4.51608,-3.69272 5.75326,-4.21648 9.95971,-4.21648 8.8236,0 14.46077,7.77138 11.71672,16.15263 -0.95375,2.91309 -6.27409,7.70403 -31.53996,28.40164 -16.71598,13.6936 -31.35102,25.41349 -32.52231,26.04421 -1.1713,0.63072 -3.96507,1.14676 -6.20839,1.14676 -3.46004,0 -4.67163,-0.59764 -7.98723,-3.93984 z m 288.83453,4.84313 c 5.89196,-2.68848 9.53125,-6.29951 12.30115,-12.20562 2.25556,-4.80942 2.30483,-5.51572 2.31415,-33.16989 l 0.01,-28.25583 H 443.20096 406.1514 l 0.0215,28.25583 c 0.0199,26.29794 0.15903,28.56228 2.00745,32.67848 2.66708,5.93924 6.24937,9.60773 12.10847,12.39985 4.58131,2.1832 5.96136,2.3224 22.91223,2.31114 16.045,-0.0106 18.52189,-0.23311 22.42473,-2.01396 z"
       id="path99" />
  </g>
</svg>
