<?xml version="1.0" encoding="UTF-8" standalone="no"?>
<!-- Created with Inkscape (http://www.inkscape.org/) -->

<svg
   version="1.1"
   id="svg291"
   width="512"
   height="512"
   viewBox="0 0 512 512"
   sodipodi:docname="odometer.svg"
   inkscape:version="1.1.1 (3bf5ae0d25, 2021-09-20)"
   xmlns:inkscape="http://www.inkscape.org/namespaces/inkscape"
   xmlns:sodipodi="http://sodipodi.sourceforge.net/DTD/sodipodi-0.dtd"
   xmlns="http://www.w3.org/2000/svg"
   xmlns:svg="http://www.w3.org/2000/svg">
  <defs
     id="defs295" />
  <sodipodi:namedview
     id="namedview293"
     pagecolor="#505050"
     bordercolor="#ffffff"
     borderopacity="1"
     inkscape:pageshadow="0"
     inkscape:pageopacity="0"
     inkscape:pagecheckerboard="1"
     showgrid="false"
     inkscape:zoom="1.25"
     inkscape:cx="255.6"
     inkscape:cy="256"
     inkscape:window-width="1440"
     inkscape:window-height="890"
     inkscape:window-x="-6"
     inkscape:window-y="-6"
     inkscape:window-maximized="1"
     inkscape:current-layer="g297" />
  <g
     inkscape:groupmode="layer"
     inkscape:label="Image"
     id="g297">
    <path
       style="fill:#000000"
       d="M 32.034512,372.19762 C 24.555775,369.32658 16.989553,361.66075 14.15379,354.0815 12.000476,348.32625 12,348.30245 12,246.4 c 0,-101.90245 4.76e-4,-101.92625 2.15379,-107.6815 2.906174,-7.76744 10.39727,-15.25854 18.164715,-18.16471 L 38.075025,118.4 H 252 465.92497 l 5.75653,2.15379 c 7.76744,2.90617 15.25854,10.39727 18.16471,18.16471 C 491.99952,144.47375 492,144.49755 492,246.4 c 0,101.90245 -4.8e-4,101.92625 -2.15379,107.6815 -2.90617,7.76744 -10.39727,15.25854 -18.16471,18.16471 L 465.92497,374.4 251.71249,374.34789 37.5,374.29579 Z M 460,246.4 v -96 h -64 -64 v 96 96 h 64 64 z m -91.96549,61.79762 C 360.55577,305.32658 352.98955,297.66075 350.15379,290.0815 348.08779,284.55961 348,282.77915 348,246.4 c 0,-36.37915 0.0878,-38.15961 2.15379,-43.6815 2.90617,-7.76744 10.39727,-15.25854 18.16471,-18.16471 C 373.56917,182.58926 376.00167,182.4 396,182.4 c 19.99833,0 22.43083,0.18926 27.6815,2.15379 7.76744,2.90617 15.25854,10.39727 18.16471,18.16471 2.066,5.52189 2.15379,7.30235 2.15379,43.6815 0,36.37915 -0.0878,38.15961 -2.15379,43.6815 -2.90617,7.76744 -10.39727,15.25854 -18.16471,18.16471 -5.2782,1.97483 -7.60221,2.14946 -27.96901,2.10168 -20.08082,-0.0471 -22.737,-0.25346 -27.67798,-2.15027 z M 412,246.4 v -32 h -16 -16 v 32 32 h 16 16 z m -275.29821,61.13022 c 6.57171,-2.94997 14.33967,-11.06877 16.87114,-17.63313 1.78286,-4.62314 1.92707,-7.87816 1.92707,-43.49709 0,-35.61893 -0.14421,-38.87395 -1.92707,-43.49709 -2.52437,-6.54592 -10.29677,-14.67738 -16.87114,-17.6505 C 131.71413,182.99683 130.53264,182.9 108,182.9 c -22.53264,0 -23.71413,0.0968 -28.70179,2.35241 -6.57437,2.97312 -14.346775,11.10458 -16.871139,17.6505 C 60.644208,207.52605 60.5,210.78107 60.5,246.4 c 0,43.98123 0.06864,44.41728 8.392811,53.31649 8.909129,9.52458 13.284739,10.62705 41.107189,10.35725 20.13259,-0.19523 21.83084,-0.357 26.70179,-2.54352 z M 92,246.4 v -32 h 16 16 v 32 32 H 108 92 Z m 188.70179,61.13022 c 6.57171,-2.94997 14.33967,-11.06877 16.87114,-17.63313 1.78286,-4.62314 1.92707,-7.87816 1.92707,-43.49709 0,-35.61893 -0.14421,-38.87395 -1.92707,-43.49709 -2.52437,-6.54592 -10.29677,-14.67738 -16.87114,-17.6505 C 275.71413,182.99683 274.53264,182.9 252,182.9 c -22.53264,0 -23.71413,0.0968 -28.70179,2.35241 -6.57437,2.97312 -14.34677,11.10458 -16.87114,17.6505 -1.78286,4.62314 -1.92707,7.87816 -1.92707,43.49709 0,43.98123 0.0686,44.41728 8.39281,53.31649 8.90913,9.52458 13.28474,10.62705 41.10719,10.35725 20.13259,-0.19523 21.83084,-0.357 26.70179,-2.54352 z M 236,246.4 v -32 h 16 16 v 32 32 h -16 -16 z"
       id="path381" />
  </g>
</svg>
