<?xml version="1.0" encoding="UTF-8" standalone="no"?>
<!-- Created with Inkscape (http://www.inkscape.org/) -->

<svg
   version="1.1"
   id="svg493"
   width="512"
   height="512"
   viewBox="0 0 512 512"
   sodipodi:docname="range.svg"
   inkscape:version="1.1.1 (3bf5ae0d25, 2021-09-20)"
   xmlns:inkscape="http://www.inkscape.org/namespaces/inkscape"
   xmlns:sodipodi="http://sodipodi.sourceforge.net/DTD/sodipodi-0.dtd"
   xmlns="http://www.w3.org/2000/svg"
   xmlns:svg="http://www.w3.org/2000/svg">
  <defs
     id="defs497" />
  <sodipodi:namedview
     id="namedview495"
     pagecolor="#505050"
     bordercolor="#ffffff"
     borderopacity="1"
     inkscape:pageshadow="0"
     inkscape:pageopacity="0"
     inkscape:pagecheckerboard="1"
     showgrid="false"
     inkscape:zoom="1.25"
     inkscape:cx="255.6"
     inkscape:cy="256"
     inkscape:window-width="1440"
     inkscape:window-height="890"
     inkscape:window-x="-6"
     inkscape:window-y="-6"
     inkscape:window-maximized="1"
     inkscape:current-layer="g499" />
  <g
     inkscape:groupmode="layer"
     inkscape:label="Image"
     id="g499">
    <path
       style="fill:#000000"
       d="m 160.2041,479.53355 c -10.377,-5.94921 -10.1562,-20.9787 0.3993,-27.17948 5.07393,-2.98067 20.91927,-2.98067 25.9932,0 5.79946,3.40687 8.24871,7.96852 7.79144,14.51133 -0.77114,11.03388 -6.25936,14.94398 -20.93917,14.91815 -7.82607,-0.0138 -9.98346,-0.38027 -13.24477,-2.25 z m 53.38573,0.0165 c -7.22828,-4.91953 -9.47439,-11.57421 -6.51874,-19.31347 1.22285,-3.20198 2.9395,-5.34164 5.80931,-7.24079 3.74994,-2.48159 4.87725,-2.69574 14.19055,-2.69574 11.31758,0 13.36692,0.79875 18.15477,7.07594 5.16453,6.77105 3.04564,17.03332 -4.57767,22.17066 -2.92652,1.97214 -4.61726,2.25335 -13.54805,2.25335 -8.93597,0 -10.61512,-0.27965 -13.51017,-2.25 z m 53.37688,0.33194 c -9.45164,-5.76334 -10.6249,-18.00219 -2.43505,-25.40124 4.50838,-4.07304 9.63135,-5.23041 19.60736,-4.42963 8.1013,0.65029 12.61672,3.37347 15.51248,9.35532 3.72396,7.69268 1.53656,14.98615 -6.04133,20.14361 -2.89084,1.96749 -4.57436,2.24953 -13.40805,2.24626 -8.18004,-0.003 -10.69827,-0.36725 -13.23541,-1.91432 z m 53.23739,-0.34839 c -10.377,-5.94921 -10.1562,-20.9787 0.3993,-27.17948 5.07393,-2.98067 20.91927,-2.98067 25.9932,0 5.79946,3.40687 8.24871,7.96852 7.79144,14.51133 -0.77114,11.03388 -6.25936,14.94398 -20.93917,14.91815 -7.82607,-0.0138 -9.98346,-0.38027 -13.24477,-2.25 z m -198.81274,-8.6908 c -8.8879,-2.78161 -12.17769,-9.24711 -11.6441,-22.88443 0.28088,-7.17847 0.77278,-9.57735 2.41453,-11.77494 3.25785,-4.36086 6.85901,-6.56382 11.60414,-7.09866 5.80584,-0.65441 10.82468,1.52598 14.45225,6.27864 2.61486,3.42586 2.91388,4.63865 3.22787,13.09197 0.29569,7.96062 0.0307,9.96777 -1.82095,13.79278 -3.32562,6.8698 -11.47349,10.71038 -18.23374,8.59464 z M 374.6,459.02029 c -4.21328,-2.29056 -9.57893,-9.58108 -25.73596,-34.96846 -34.69541,-54.51659 -57.12403,-98.8534 -65.5032,-129.48649 -1.91062,-6.98498 -2.24569,-10.58895 -2.16303,-23.26534 0.0862,-13.21755 0.41769,-16.06947 2.78973,-24 10.86494,-36.32509 38.09558,-62.62773 74.23793,-71.70794 13.2119,-3.31929 35.09238,-3.1254 48.38601,0.42876 18.49436,4.94461 34.16079,14.0775 47.06386,27.43629 18.45525,19.10708 27.62317,40.21318 28.60037,65.84289 0.45936,12.04806 0.27868,13.8421 -2.46746,24.5 -8.55113,33.18732 -35.70881,85.51628 -75.87723,146.20452 -5.71699,8.63748 -11.78773,16.69656 -13.49054,17.90906 -4.28412,3.05057 -11.35608,3.54466 -15.84048,1.10671 z m 16.96435,-58.75327 c 29.83522,-47.53443 51.54788,-90.66667 57.6192,-114.46068 2.39537,-9.38765 1.50129,-23.95286 -2.10914,-34.35955 -9.45956,-27.2662 -36.63405,-46.61206 -65.47441,-46.61206 -28.84036,0 -56.01485,19.34586 -65.47441,46.61206 -3.60951,10.40402 -4.50426,24.97046 -2.11054,34.35955 5.19606,20.38098 20.6929,52.8503 43.9064,91.99366 13.08388,22.06246 22.86538,37.10439 23.90335,36.7584 0.53519,-0.1784 4.91799,-6.60952 9.73955,-14.29138 z m -22.88162,-80.05514 c -15.86037,-4.26426 -29.16944,-18.12943 -33.55154,-34.95343 -6.91327,-26.54186 12.11149,-54.49667 39.71881,-58.36243 28.89684,-4.04633 54.75,18.49814 54.75,47.7431 0,15.65274 -10.87758,33.87798 -24.71464,41.40905 -10.23767,5.57204 -24.75461,7.24165 -36.20263,4.16371 z M 389.61017,287.55 c 7.5722,-5.15359 9.9025,-13.08053 6.05969,-20.61306 -5.38395,-10.55342 -19.63717,-11.81506 -26.83706,-2.3755 -3.57847,4.69161 -3.89442,13.52415 -0.64085,17.91523 3.54656,4.7865 8.19115,7.32333 13.40805,7.32333 3.23226,0 5.73867,-0.70403 8.01017,-2.25 z m -272.02034,128 C 110.97982,411.05127 110.1,408.84873 110.1,396.8 c 0,-9.44594 0.27127,-11.21945 2.09195,-13.67667 7.27496,-9.81842 19.54114,-9.81842 26.8161,0 1.82068,2.45722 2.09195,4.23073 2.09195,13.67667 0,9.44594 -0.27127,11.21945 -2.09195,13.67667 -3.54656,4.7865 -8.19115,7.32333 -13.40805,7.32333 -3.23226,0 -5.73867,-0.70403 -8.01017,-2.25 z m 1.5124,-52.26794 c -7.54977,-4.08127 -9.51088,-8.15644 -9.48027,-19.69994 0.0272,-10.27565 2.10451,-15.4611 7.53915,-18.81989 8.00897,-4.94982 18.30151,-2.00892 22.36794,6.3912 2.67458,5.52494 2.91432,19.06705 0.43022,24.30189 -3.61062,7.60882 -14.02842,11.51816 -20.85704,7.82674 z m 2.46624,-52.39189 C 116.16452,309.1817 113.98056,306.70461 102.0924,288.8 64.13471,231.63242 36.95968,179.53716 27.49771,145.8 c -2.01869,-7.19772 -2.3806,-10.72153 -2.36219,-23 0.0267,-17.80396 2.02491,-26.35702 9.92912,-42.5 C 45.24124,59.516048 60.31605,44.441242 81.1,34.264638 c 16.7641,-8.208333 24.51953,-9.940812 44.5,-9.940812 19.98485,0 27.74325,1.733874 44.5,9.945017 20.89698,10.239934 35.81381,25.155402 46.03536,46.031157 7.90421,16.14298 9.90243,24.69604 9.92912,42.5 0.0184,12.27847 -0.3435,15.80228 -2.36219,23 -9.35851,33.36827 -36.04567,84.66533 -73.61501,141.5 -8.3161,12.58054 -14.29021,20.61517 -16.10392,21.65825 -3.66531,2.10796 -9.15566,2.96233 -12.41489,1.93192 z M 135.80302,250.55 c 28.12728,-45.22776 47.47284,-82.55075 55.33154,-106.75 8.6382,-26.59954 0.47414,-53.5963 -22.03456,-72.863491 -6.17922,-5.289347 -18.8579,-11.550425 -27.5,-13.58025 -8.33224,-1.957048 -23.66776,-1.957048 -32,0 C 90.17319,61.91916 72.27984,76.275811 63.55532,94.3 51.30333,119.61167 54.4308,138.7333 78.60107,186.29104 91.40738,211.48889 123.51148,265.8 125.6,265.8 c 0.39545,0 4.98681,-6.8625 10.20302,-15.25 z m -21.43036,-79.30498 c -8.73935,-2.1185 -15.58313,-6.0703 -22.51184,-12.99901 C 72.97766,139.36284 73.03285,110.18197 91.98758,91.22723 119.74287,63.471946 166.132,78.587434 172.77162,117.55 c 5.61279,32.93691 -25.60879,61.64365 -58.39896,53.69502 z m 17.55615,-31.80905 c 10.27462,-4.293 12.77936,-17.7631 4.78884,-25.75362 -6.48655,-6.48655 -15.74875,-6.48655 -22.2353,0 -12.36655,12.36655 1.27866,32.50896 17.44646,25.75362 z"
       id="path583" />
  </g>
</svg>
