<?xml version="1.0" encoding="UTF-8" standalone="no"?>
<!-- Created with Inkscape (http://www.inkscape.org/) -->

<svg
   version="1.1"
   id="svg695"
   width="348"
   height="361"
   viewBox="0 0 348 361"
   sodipodi:docname="timeremaining.svg"
   inkscape:version="1.1.1 (3bf5ae0d25, 2021-09-20)"
   xmlns:inkscape="http://www.inkscape.org/namespaces/inkscape"
   xmlns:sodipodi="http://sodipodi.sourceforge.net/DTD/sodipodi-0.dtd"
   xmlns="http://www.w3.org/2000/svg"
   xmlns:svg="http://www.w3.org/2000/svg">
  <defs
     id="defs699" />
  <sodipodi:namedview
     id="namedview697"
     pagecolor="#505050"
     bordercolor="#ffffff"
     borderopacity="1"
     inkscape:pageshadow="0"
     inkscape:pageopacity="0"
     inkscape:pagecheckerboard="1"
     showgrid="false"
     inkscape:zoom="1.7728532"
     inkscape:cx="174.01328"
     inkscape:cy="180.5"
     inkscape:window-width="1440"
     inkscape:window-height="890"
     inkscape:window-x="-6"
     inkscape:window-y="-6"
     inkscape:window-maximized="1"
     inkscape:current-layer="g701" />
  <g
     inkscape:groupmode="layer"
     inkscape:label="Image"
     id="g701">
    <path
       style="fill:#000000;stroke-width:0.948671"
       d="m 174.218,341.98681 v -11.22385 l 12.04735,-1.27849 c 6.62605,-0.70318 13.58048,-1.47779 15.45429,-1.72137 l 3.40692,-0.44289 2.09436,9.37348 c 1.15191,5.15541 2.2942,10.08941 2.53843,10.96444 0.35212,1.26153 -0.59134,1.80534 -4.5564,2.62629 -7.81064,1.61718 -18.61046,2.86462 -25.07939,2.89683 l -5.90556,0.0294 z m -50.0792,3.7094 c -12.47686,-4.12528 -20.78759,-7.61535 -20.78759,-8.72969 0,-0.42355 1.88076,-4.6653 4.17947,-9.42612 2.2987,-4.76081 4.34018,-9.14201 4.5366,-9.73601 0.23172,-0.70072 3.82425,0.27114 10.23011,2.76746 5.43014,2.1161 12.10529,4.40599 14.83366,5.08866 2.72837,0.68268 4.96067,1.59334 4.96067,2.02371 0,0.93225 -3.6283,17.65842 -4.34927,20.04976 -0.66063,2.19123 -0.93934,2.14948 -13.60365,-2.03777 z m 118.62912,-12.24922 c -0.94709,-1.96446 -3.14048,-6.67776 -4.87419,-10.474 l -3.1522,-6.90225 4.93541,-2.50904 c 2.71447,-1.37998 8.6824,-5.08971 13.26207,-8.24385 7.02681,-4.83954 8.51475,-5.52634 9.53143,-4.39947 0.66262,0.73443 3.89483,4.70936 7.18271,8.83318 l 5.97796,7.49784 -2.28092,1.83082 c -6.44032,5.16945 -26.71319,17.93852 -28.48015,17.93852 -0.20908,0 -1.15503,-1.60729 -2.10212,-3.57175 z M 56.755895,305.92371 c -1.916134,-1.87606 -3.483877,-3.80059 -3.483877,-4.27675 0,-0.87881 37.002118,-43.57305 103.484722,-119.40402 6.88914,-7.85784 13.40204,-15.35852 14.47309,-16.66816 l 1.94738,-2.38116 11.15041,11.22454 11.15041,11.22453 -4.72445,4.49615 c -8.51511,8.10363 -126.567,116.08759 -129.041724,118.03654 -1.221025,0.96162 -2.066258,0.57759 -4.955961,-2.25167 z M 292.0626,283.63264 c -5.41858,-4.39566 -8.0261,-7.10991 -7.54884,-7.85785 0.40101,-0.62843 2.69257,-4.14287 5.09237,-7.80987 2.3998,-3.66699 5.74319,-9.14526 7.42976,-12.17391 3.56189,-6.39627 2.84056,-6.39307 15.38119,-0.0683 l 8.27665,4.17429 -2.5062,4.9864 c -5.02312,9.99416 -15.49807,25.46447 -17.24198,25.46447 -0.33275,0 -4.33008,-3.02186 -8.88295,-6.71524 z M 34.644126,277.7277 C 23.3593,259.62555 14.074741,235.39458 11.605288,217.60059 c -0.626849,-4.51679 -1.500486,-8.21235 -1.9414188,-8.21235 -0.4409331,0 -0.8017017,-9.00081 -0.8017017,-20.0018 0,-11.00099 0.3666553,-20.00179 0.8147979,-20.00179 0.4481336,0 1.0992756,-2.43986 1.4469676,-5.42191 2.302566,-19.74838 13.165612,-48.16726 25.384963,-66.409786 13.300599,-19.856749 33.469031,-39.051345 52.905182,-50.350656 3.507905,-2.039339 6.37801,-4.301766 6.37801,-5.027616 0,-0.725849 -1.488202,-6.856494 -3.307117,-13.623657 -1.818914,-6.767161 -3.307116,-12.92695 -3.307116,-13.688419 0,-1.145648 1.426303,-0.997656 8.267791,0.857859 4.547284,1.233291 22.086814,5.920959 38.976734,10.417041 16.88992,4.496082 31.21082,8.456477 31.82422,8.800878 0.68566,0.384968 -10.18223,12.113256 -28.21245,30.446 -16.13025,16.400898 -29.46992,29.676499 -29.64369,29.501331 -0.17378,-0.175168 -1.86896,-6.308042 -3.76707,-13.628614 -1.89812,-7.320571 -3.7505,-13.631057 -4.1164,-14.023304 -0.85224,-0.913606 -10.910471,5.742105 -20.033237,13.256359 -17.105295,14.089303 -30.382319,32.324174 -39.759062,54.605704 -17.49304,41.56791 -13.172567,91.78838 11.169701,129.83482 2.283933,3.56973 4.249787,6.88592 4.368559,7.36932 0.235599,0.9588 -16.190896,13.23517 -17.751165,13.26638 -0.527504,0.0106 -3.163446,-3.51686 -5.85766,-7.83868 z M 320.24792,222.10808 c -5.1725,-1.27163 -9.49571,-2.40394 -9.60712,-2.51624 -0.11142,-0.11232 0.21489,-2.34692 0.72515,-4.96579 0.51025,-2.61886 1.21925,-9.47629 1.57555,-15.23871 l 0.64784,-10.47713 12.04735,-0.26658 12.04735,-0.26656 v 4.37076 c 0,2.40392 -0.36684,4.14223 -0.81522,3.8629 -0.44837,-0.27933 -1.05728,3.2314 -1.35315,7.80163 -0.82176,12.6939 -2.43844,20.2367 -4.3106,20.11155 -0.85392,-0.0571 -5.78464,-1.14421 -10.95715,-2.41583 z m -10.44536,-66.42079 c -3.50713,-11.48782 -5.78712,-18.26304 -7.6409,-22.70579 -1.25028,-2.99638 -2.27323,-5.66757 -2.27323,-5.93596 0,-0.43125 19.42839,-10.04655 20.29977,-10.04655 0.6707,0 7.94159,19.62786 9.86387,26.62762 1.07271,3.90613 1.63423,7.38996 1.24783,7.74185 -0.38639,0.35189 -5.30815,1.7074 -10.93724,3.01225 -7.0499,1.63421 -10.33596,2.04079 -10.5601,1.30658 z M 271.52618,88.465291 260.64442,77.33356 l 5.69641,-7.290195 c 9.01932,-11.542799 7.61306,-11.151355 15.32517,-4.265883 7.82746,6.988452 18.45615,18.644646 18.03918,19.783072 -0.32427,0.885356 -16.48515,14.366794 -16.98061,14.165252 -0.17414,-0.07086 -5.21342,-5.13807 -11.19839,-11.260515 z M 224.76964,57.454093 c -4.15752,-1.748881 -10.42923,-3.89994 -13.93714,-4.780132 -3.98121,-0.99895 -6.37801,-2.088612 -6.37801,-2.899643 0,-2.293404 3.97446,-19.899382 4.66371,-20.659212 1.11756,-1.232 28.07059,7.424122 32.92553,10.574225 0.92482,0.600064 0.0984,3.187424 -3.49752,10.949934 -2.58968,5.590315 -5.04801,10.126051 -5.46297,10.079411 -0.41496,-0.04664 -4.15609,-1.515702 -8.3136,-3.264583 z"
       id="path785" />
  </g>
</svg>
