<?xml version="1.0" encoding="UTF-8" standalone="no"?>
<!-- Created with Inkscape (http://www.inkscape.org/) -->

<svg
   width="210mm"
   height="210mm"
   viewBox="0 0 210 210"
   version="1.1"
   id="svg5"
   inkscape:version="1.1.1 (3bf5ae0d25, 2021-09-20)"
   sodipodi:docname="icon.svg"
   xmlns:inkscape="http://www.inkscape.org/namespaces/inkscape"
   xmlns:sodipodi="http://sodipodi.sourceforge.net/DTD/sodipodi-0.dtd"
   xmlns="http://www.w3.org/2000/svg"
   xmlns:svg="http://www.w3.org/2000/svg">
  <sodipodi:namedview
     id="namedview7"
     pagecolor="#505050"
     bordercolor="#ffffff"
     borderopacity="1"
     inkscape:pageshadow="0"
     inkscape:pageopacity="0"
     inkscape:pagecheckerboard="1"
     inkscape:document-units="mm"
     showgrid="false"
     inkscape:zoom="0.44785584"
     inkscape:cx="398.56576"
     inkscape:cy="506.85953"
     inkscape:window-width="1440"
     inkscape:window-height="890"
     inkscape:window-x="-6"
     inkscape:window-y="-6"
     inkscape:window-maximized="1"
     inkscape:current-layer="layer1" />
  <defs
     id="defs2" />
  <g
     inkscape:label="Laag 1"
     inkscape:groupmode="layer"
     id="layer1">
    <path
       style="fill:#333333;fill-opacity:1;stroke-width:1.19367"
       d="m 21.248814,159.34585 c -3.747782,-0.40148 -7.479371,-1.39519 -8.29242,-2.20823 -1.972381,-1.97238 -3.1738407,-12.33664 -3.2856357,-28.34318 -0.09963,-14.26359 1.2482947,-25.00043 4.4116547,-35.140971 1.692116,-5.424295 2.855609,-6.995816 7.070008,-9.549397 2.774514,-1.68114 5.058897,-3.325177 5.076407,-3.65344 0.01751,-0.328255 -2.476276,-0.743011 -5.541747,-0.921681 -5.399971,-0.314713 -8.738718,-1.84266 -8.738718,-3.999179 0,-0.576126 5.010148,-1.047513 11.133663,-1.047513 h 11.13366 l 9.457218,-12.130824 c 5.201468,-6.671963 10.882702,-13.184097 12.624962,-14.471413 4.307188,-3.182473 16.260915,-4.292128 46.966544,-4.35987 27.54755,-0.06077 43.6223,1.292076 47.78849,4.021873 1.49133,0.977165 7.09596,7.43846 12.45472,14.358446 l 9.74321,12.581788 h 11.26167 c 6.19391,0 11.26167,0.429722 11.26167,0.954943 0,2.078236 -3.05759,3.819764 -6.70631,3.819764 -7.34275,0 -8.22137,1.242847 -3.05617,4.322998 5.80208,3.459938 7.88895,8.254548 10.4716,24.058526 2.06586,12.64154 1.42387,42.7663 -1.01051,47.41678 -1.90927,3.6474 -2.79397,3.91502 -15.8933,4.80787 -14.79374,1.00834 -20.45025,-0.3591 -21.50628,-5.19903 -0.38281,-1.75443 -0.86719,-3.76836 -1.07643,-4.47541 -0.20922,-0.70706 -3.94856,-2.98997 -8.30961,-5.07312 l -7.9292,-3.78756 -37.24873,0.0282 -37.248695,0.0282 -7.736003,3.85125 c -6.440548,3.20635 -7.893147,4.49194 -8.674406,7.67722 -1.795074,7.31866 -7.776032,8.66391 -28.601312,6.43299 z m 118.853926,-49.05117 38.03199,-0.002 -0.81495,-4.34412 c -0.44823,-2.38926 -1.44975,-6.283629 -2.2256,-8.654139 l -1.41064,-4.30984 -18.47238,-0.330975 c -16.60948,-0.297597 -18.2342,-0.150958 -16.11077,1.454134 1.57783,1.19267 5.23371,1.797706 11.01573,1.823066 l 8.65414,0.038 v 4.675224 c 0,2.57137 -0.535,4.85427 -1.18889,5.07312 -0.65388,0.21884 -25.49724,0.12932 -55.20743,-0.19895 l -54.018516,-0.59684 -0.39005,-2.75146 c -0.672495,-4.743888 1.747021,-6.197612 10.384021,-6.239059 5.055977,-0.02427 8.747383,-0.670471 10.228218,-1.790508 2.070143,-1.565779 0.3891,-1.752551 -15.774186,-1.752551 -20.458591,0 -19.112664,-0.65466 -21.749851,10.579108 -1.252634,5.33591 -1.229223,6.5924 0.140677,7.54983 1.016481,0.71043 14.848923,0.88767 36.259957,0.4646 19.039102,-0.37622 51.73093,-0.68501 72.64853,-0.68623 z"
       id="path21" />
  </g>
</svg>
