<svg xmlns="http://www.w3.org/2000/svg" viewBox="0 0 24 24">
    <g fill="none" stroke="#000000" stroke-width="1.5" stroke-linecap="round"
        stroke-linejoin="round">
        <path d="M5,6.75004 L3,11.5" />
        <path
            d="M1.5,18.218 V19.75 C1.5,20.1478 1.6580400000000006,20.5294 1.93934,20.8107 C2.22064,21.092 2.60218,21.25 3,21.25 C3.3978200000000003,21.25 3.77936,21.092 4.06066,20.8107 C4.34196,20.5294 4.5,20.1478 4.5,19.75 V18.3921" />
        <path
            d="M22.5,18.218 V19.75 C22.5,20.1478 22.342,20.5294 22.0607,20.8107 C21.7794,21.092 21.3978,21.25 21,21.25 C20.6022,21.25 20.2206,21.092 19.9393,20.8107 C19.658,20.5294 19.5,20.1478 19.5,19.75 V18.322" />
        <path
            d="M2.75,11.5 H21.25 C21.7804,11.5 22.2891,11.7107 22.6642,12.0858 C23.0393,12.4609 23.25,12.9696 23.25,13.5 V17.25 C23.25,17.5152 23.1446,17.7696 22.9571,17.9571 C22.7696,18.1446 22.5152,18.25 22.25,18.25 H1.75 C1.48478,18.25 1.2304300000000001,18.1446 1.04289,17.9571 C0.855357,17.7696 0.7500000000000004,17.5152 0.7500000000000004,17.25 V13.5 C0.7500000000000004,12.9696 0.9607140000000004,12.4609 1.33579,12.0858 C1.71086,11.7107 2.21957,11.5 2.75,11.5 V11.5 z" />
        <path
            d="M12.5,3 C12.5,4.24265 13.5074,5.25 14.75,5.25 C15.9926,5.25 17,4.24265 17,3 C17,1.7573599999999998 15.9926,0.7500000000000003 14.75,0.7500000000000003 C13.5074,0.7500000000000003 12.5,1.7573599999999998 12.5,3 z" />
        <path d="M12.5,2.99988 L7,2.99988 L7,4.47783" />
        <path d="M14.25,15.25 H9.75" />
        <path d="M23.25,14.875 H20.25" />
        <path d="M0.7500000000000004,14.875 H3.75029" />
        <path d="M9.25,2.99988 L9.25,4.60651" />
        <path d="M21,11.5 L19,6.75004" />
    </g>
</svg>