<svg xmlns="http://www.w3.org/2000/svg" width="800" height="800" fill="none" stroke="#000" viewBox="0 0 24 24">
  <g stroke="#00000" stroke-linecap="round" stroke-linejoin="round" stroke-width="1.5">
    <path d="M5 8.00004 3 12.75m-1.5 6.718V21c0 .3978.15804.7794.43934 1.0607S2.60218 22.5 3 22.5c.39782 0 .77936-.158 1.06066-.4393C4.34196 21.7794 4.5 21.3978 4.5 21v-1.3579m18-.1741V21c0 .3978-.158.7794-.4393 1.0607S21.3978 22.5 21 22.5c-.3978 0-.7794-.158-1.0607-.4393S19.5 21.3978 19.5 21v-1.428"/>
    <path d="M2.75 12.75h18.5c.5304 0 1.0391.2107 1.4142.5858s.5858.8838.5858 1.4142v3.75c0 .2652-.1054.5196-.2929.7071s-.4419.2929-.7071.2929H1.75c-.26522 0-.51957-.1054-.70711-.2929C.855357 19.0196.75 18.7652.75 18.5v-3.75c0-.5304.210714-1.0391.58579-1.4142.37507-.3751.88378-.5858 1.41421-.5858v0Zm9.75-8.5c0 1.24265 1.0074 2.25 2.25 2.25S17 5.49265 17 4.25C17 3.00736 15.9926 2 14.75 2S12.5 3.00736 12.5 4.25Zm0-.00012H7v1.47795M14.25 16.5h-4.5m13.5-.375h-3m-19.5 0h3.00029M9.25 4.24988v1.60663M21 12.75l-2-4.74996"/>
  </g>
</svg>
