<?xml version="1.0" encoding="utf-8"?>

<!-- Uploaded to: SVG Repo, www.svgrepo.com, Generator: SVG Repo Mixer Tools -->
<svg version="1.1" id="Icons" xmlns="http://www.w3.org/2000/svg" xmlns:xlink="http://www.w3.org/1999/xlink" 
	 viewBox="0 0 32 32" xml:space="preserve">
<style type="text/css">
	.st0{fill:none;stroke:#000000;stroke-width:2;stroke-linecap:round;stroke-linejoin:round;stroke-miterlimit:10;}
</style>
<path class="st0" d="M19,23H3v-5c0-2.2,1.8-4,4-4h17"/>
<path class="st0" d="M29,11h-3l-1.3-2.1c-1.1-1.8-3-2.9-5.1-2.9h-7.2c-2.1,0-4.1,1.1-5.1,2.9L6,11H3"/>
<path class="st0" d="M4,17h6l-1,0c0.5,1.5-0.6,3-2.2,3H3"/>
<path class="st0" d="M3,23v2c0,1.1,0.9,2,2,2h2c1.1,0,2-0.9,2-2v-2"/>
<path class="st0" d="M30,19.6c0,5-5.5,9.4-5.5,9.4S19,24.6,19,19.6c0-3.1,2.5-5.6,5.5-5.6S30,16.5,30,19.6z"/>
<circle class="st0" cx="24.5" cy="19.5" r="1.5"/>
</svg>