<?xml version="1.0" encoding="utf-8"?><!-- Uploaded to: SVG Repo, www.svgrepo.com, Generator: SVG Repo Mixer Tools -->
<svg width="800px" height="800px" viewBox="0 0 1024 1024" xmlns="http://www.w3.org/2000/svg"><path fill="#000000" d="M512 896a384 384 0 1 0 0-768 384 384 0 0 0 0 768zm0 64a448 448 0 1 1 0-896 448 448 0 0 1 0 896z"/><path fill="#000000" d="M192 512a320 320 0 1 1 640 0 32 32 0 1 1-64 0 256 256 0 1 0-512 0 32 32 0 0 1-64 0z"/><path fill="#000000" d="M570.432 627.84A96 96 0 1 1 509.568 608l60.992-187.776A32 32 0 1 1 631.424 440l-60.992 187.776zM502.08 734.464a32 32 0 1 0 19.84-60.928 32 32 0 0 0-19.84 60.928z"/></svg>