<?xml version="1.0" standalone="no"?>
<!DOCTYPE svg PUBLIC "-//W3C//DTD SVG 20010904//EN"
 "http://www.w3.org/TR/2001/REC-SVG-20010904/DTD/svg10.dtd">
<svg version="1.0" xmlns="http://www.w3.org/2000/svg"
 width="1800.000000pt" height="700.000000pt" viewBox="0 0 1800.000000 700.000000"
 preserveAspectRatio="xMidYMid meet">

<g transform="translate(0.000000,700.000000) scale(0.100000,-0.100000)"
fill="#000000" stroke="none">
<path d="M7480 5620 c-74 -5 -236 -14 -360 -20 -549 -26 -1100 -85 -1593 -171
l-118 -20 -77 25 c-143 47 -161 49 -311 26 -169 -25 -227 -38 -241 -54 -5 -7
-16 -42 -23 -77 l-13 -64 -59 -13 c-326 -74 -978 -255 -1500 -417 -77 -23
-214 -66 -305 -94 -272 -83 -862 -268 -905 -284 -22 -8 -41 -21 -43 -30 -8
-40 23 -101 93 -189 l75 -93 -50 -5 c-72 -8 -76 -15 -62 -110 13 -91 25 -120
50 -120 43 0 52 -21 111 -280 l58 -255 -138 -133 -139 -134 0 -256 1 -257 132
-117 c184 -163 213 -183 277 -196 57 -12 387 -67 1030 -171 206 -34 385 -66
397 -71 12 -5 47 -47 77 -92 102 -155 197 -254 340 -356 l60 -42 -115 -1 c-62
0 -258 -4 -435 -7 -353 -8 -365 -10 -379 -71 -11 -52 6 -67 82 -74 37 -4 860
-10 1828 -13 1752 -6 2025 -3 2061 26 19 17 18 63 -4 90 -10 13 -37 26 -62 31
-25 5 -393 12 -817 16 -425 3 -773 9 -773 13 0 3 31 28 70 54 81 56 197 176
261 269 l44 66 3252 1 3252 0 72 -82 c108 -123 231 -239 288 -273 28 -17 51
-33 51 -36 0 -3 -1223 -8 -2717 -11 l-2718 -6 -32 -38 c-40 -46 -41 -65 -5
-104 l27 -29 3810 10 c2096 6 3850 14 3899 18 101 7 115 20 91 78 -28 66 -32
66 -520 73 l-440 5 92 63 c118 82 265 246 333 374 l23 45 109 7 c309 19 921
126 1034 181 56 27 115 91 140 151 14 34 14 38 -11 86 -52 99 -185 487 -185
538 0 31 23 69 90 152 76 92 90 129 100 266 35 479 34 441 15 462 -10 11 -55
44 -99 72 -259 167 -852 333 -1471 413 -663 86 -1114 116 -1940 130 l-380 7
-395 170 c-858 370 -1193 505 -1585 638 -575 195 -928 266 -1495 300 -223 13
-1051 20 -1210 10z m1470 -144 c410 -53 711 -134 1132 -305 414 -168 924 -429
1330 -683 70 -44 131 -84 134 -89 3 -5 -16 -9 -42 -9 -46 0 -128 35 -222 94
-165 104 -601 334 -872 461 -646 303 -1030 414 -1645 477 -79 8 -303 12 -660
11 -991 0 -1605 -51 -2422 -199 -574 -104 -1193 -256 -1653 -406 -164 -54
-488 -171 -579 -209 -111 -47 -26 -28 195 45 126 41 342 108 479 150 138 41
270 82 294 90 50 18 85 21 76 6 -4 -6 -32 -23 -63 -39 -72 -36 -106 -72 -97
-100 25 -81 267 -132 1015 -212 113 -12 209 -25 214 -30 5 -4 1 -30 -10 -58
l-18 -51 -60 0 c-34 0 -450 -5 -926 -10 -841 -10 -1429 -28 -1715 -54 l-140
-12 130 -9 c129 -8 539 -3 1145 15 173 5 595 9 938 10 l622 0 0 -44 c0 -74 86
-282 174 -421 18 -27 35 -55 38 -61 4 -5 -48 17 -115 50 -128 64 -274 116
-392 141 -114 24 -329 36 -446 25 -111 -11 -153 -21 -205 -52 -19 -11 -76 -26
-131 -34 -128 -18 -196 -43 -320 -117 -189 -111 -322 -244 -476 -475 l-82
-123 -60 5 c-110 11 -366 63 -379 77 -14 16 -98 270 -92 277 6 6 318 -37 399
-55 38 -8 71 -12 74 -9 3 3 -6 20 -21 38 -44 54 -131 190 -272 424 -131 217
-135 222 -171 227 -21 4 -130 15 -243 26 -405 40 -720 88 -720 111 0 4 55 22
123 40 187 49 428 119 932 270 1054 316 1655 474 2270 594 514 100 882 148
1470 191 121 9 265 20 320 25 55 4 442 7 860 5 636 -2 780 -5 885 -19z m-3716
-85 c31 -12 9 -20 -142 -51 -75 -16 -145 -32 -154 -35 -13 -5 -21 0 -29 19 -7
14 -10 28 -8 30 8 8 225 44 269 44 25 0 54 -3 64 -7z m2930 -147 c20 -47 36
-92 36 -99 0 -14 37 -12 -1025 -36 -286 -6 -573 -13 -638 -16 l-117 -5 25 53
c36 79 64 109 110 119 59 12 503 50 700 59 94 4 328 9 521 10 l352 1 36 -86z
m164 43 c15 -24 38 -67 52 -96 20 -44 22 -54 10 -62 -8 -5 -21 -7 -28 -4 -8 3
-26 5 -42 5 -25 0 -31 7 -53 63 -14 34 -33 79 -41 100 l-16 37 45 0 c43 0 47
-3 73 -43z m407 33 c422 -31 841 -128 1180 -272 145 -62 558 -268 551 -275 -2
-2 -75 29 -162 70 -234 109 -355 144 -634 181 -284 38 -865 86 -1044 86 l-113
0 -41 93 c-23 52 -44 101 -48 110 -5 15 4 17 82 17 49 0 152 -5 229 -10z
m-2355 -85 c0 -8 -70 -145 -74 -145 -2 0 -27 -4 -56 -10 -29 -5 -56 -7 -61 -4
-10 6 56 108 87 136 18 15 44 23 87 27 9 0 17 -1 17 -4z m-220 -39 c0 -3 -42
-62 -94 -131 -52 -69 -140 -193 -196 -275 -103 -152 -138 -190 -171 -190 -27
0 -24 12 24 87 24 38 56 91 72 118 100 174 290 395 338 395 15 0 27 -2 27 -4z
m-171 -48 c-31 -59 -50 -76 -96 -87 -27 -6 -176 -22 -333 -36 -157 -14 -333
-32 -392 -41 -58 -9 -112 -14 -119 -12 -35 12 811 196 904 197 46 1 47 0 36
-21z m2328 -169 c50 -101 154 -441 139 -456 -3 -3 -16 18 -29 48 -36 80 -156
412 -164 449 -10 53 18 32 54 -41z m-1997 16 c0 -24 -100 -417 -110 -434 -28
-47 24 262 66 397 16 48 44 72 44 37z m-1323 -41 c-3 -3 -12 -4 -19 -1 -8 3
-5 6 6 6 11 1 17 -2 13 -5z m5877 -349 c82 -44 151 -86 154 -93 8 -24 -613
-11 -638 14 -16 16 63 132 103 150 23 10 61 13 132 12 l100 -3 149 -80z
m-4961 -110 c106 -9 246 -23 312 -31 66 -8 161 -19 210 -25 50 -5 516 -13
1036 -17 869 -8 949 -10 973 -25 14 -10 26 -21 26 -26 0 -16 -265 -21 -1060
-21 -813 1 -1040 7 -1340 34 -91 8 -214 17 -275 21 -171 9 -187 13 -179 38 3
12 12 32 20 45 18 27 23 27 277 7z m4452 -115 l29 -30 -875 1 c-797 0 -957 4
-975 22 -4 3 -4 13 -1 22 6 13 104 15 900 15 l893 0 29 -30z m3055 -20 c930
-57 1538 -145 2015 -292 192 -60 431 -166 500 -223 l30 -24 -50 -1 c-27 0
-129 9 -225 20 -334 37 -1097 80 -1174 66 -54 -10 -40 -28 37 -47 102 -25 150
-60 319 -229 l156 -157 269 -11 268 -11 60 58 c41 40 71 61 94 65 25 4 56 27
107 76 63 61 76 70 109 70 l38 0 -7 -127 c-9 -163 -24 -270 -42 -309 -9 -18
-42 -64 -75 -103 l-60 -71 -206 0 c-226 0 -251 9 -98 36 49 8 96 19 105 24 28
16 -17 23 -103 17 -107 -8 -143 -21 -194 -70 l-43 -41 -2 -235 -3 -236 -57 -3
-56 -3 -7 68 c-39 423 -150 678 -404 934 -133 134 -244 216 -385 284 -227 111
-403 154 -651 162 -155 4 -197 2 -307 -16 -324 -55 -645 -221 -846 -436 -186
-199 -332 -498 -362 -742 -6 -48 -12 -89 -14 -90 -1 -2 -44 15 -95 37 -50 22
-129 54 -174 72 -45 17 -87 36 -94 42 -9 8 -10 46 -2 156 5 80 12 186 15 237
l6 91 193 4 c106 2 197 7 201 11 4 4 -2 18 -14 30 -21 21 -32 22 -202 25
l-180 4 0 49 0 49 299 0 299 0 36 42 c20 23 35 43 33 44 -1 1 -151 -1 -332 -5
-182 -4 -333 -4 -337 -1 -4 3 -17 59 -28 124 -21 126 -63 264 -105 346 -14 28
-30 63 -36 77 l-10 26 423 -6 c943 -15 1251 -32 1947 -108 271 -29 347 -39
751 -98 113 -16 248 -35 300 -41 52 -6 115 -13 140 -16 76 -10 37 6 -51 21
-46 8 -160 28 -254 45 -339 61 -765 111 -1257 150 -141 11 -310 24 -375 30
-163 13 -573 28 -973 35 -600 11 -710 22 -710 72 0 14 18 15 178 9 97 -3 348
-11 557 -16 820 -21 1212 -45 1795 -106 329 -34 442 -49 705 -94 214 -36 569
-113 728 -158 88 -25 75 -13 -34 32 -171 70 -500 151 -855 210 -389 64 -848
104 -1544 136 -245 11 -557 25 -695 31 -137 6 -258 15 -270 20 -27 12 1058 3
1285 -11z m-7475 -10 c292 -22 694 -32 1590 -38 l960 -7 32 -75 c62 -144 123
-430 141 -657 l8 -103 -1056 -1 c-1129 -1 -1280 -4 -1307 -32 -9 -9 -14 -19
-10 -23 3 -4 539 -9 1191 -12 l1185 -5 5 -22 c3 -12 9 -79 12 -148 l7 -127
-479 -1 c-263 0 -596 -4 -739 -9 -229 -8 -272 -12 -357 -34 -123 -32 -358
-116 -562 -200 -88 -37 -163 -63 -167 -59 -4 5 -9 26 -11 47 l-3 39 165 64
c91 35 217 83 280 105 63 23 109 43 102 46 -16 5 -370 -90 -473 -128 -46 -16
-86 -27 -90 -23 -3 5 -12 31 -18 58 -15 62 -81 218 -129 305 -52 96 -107 170
-232 315 -225 261 -400 573 -400 712 0 23 2 23 118 22 64 0 171 -4 237 -9z
m4537 -49 l137 -6 -49 -65 c-27 -36 -50 -68 -50 -72 0 -5 117 -8 261 -8 296 0
276 -9 210 89 l-40 59 114 7 c154 10 384 2 413 -13 34 -19 27 -40 -15 -47 -69
-11 -69 -13 3 -14 l71 -1 46 -97 c84 -178 114 -305 124 -520 l6 -143 -109 0
c-120 0 -172 -10 -198 -39 -17 -18 -13 -19 149 -26 146 -7 165 -9 161 -24 -2
-9 -7 -97 -11 -196 -3 -99 -8 -192 -11 -207 l-5 -26 -77 24 c-90 28 -444 129
-484 138 -43 10 -33 1 20 -19 152 -56 501 -197 516 -208 16 -12 26 -80 14 -92
-2 -3 -71 24 -154 59 -183 78 -440 175 -554 209 l-85 25 -1043 5 c-574 3
-1046 8 -1049 11 -3 3 -8 71 -11 151 l-5 145 1035 0 c1031 0 1338 5 1338 22 0
5 -17 17 -37 26 -35 15 -134 17 -1190 20 -634 2 -1153 5 -1153 7 0 31 -36 271
-56 370 -25 125 -79 321 -109 393 -26 62 -28 61 118 65 254 5 1623 5 1759 -2z
m-7733 -117 c26 -6 91 -65 91 -83 0 -6 -16 -11 -36 -11 -49 0 -175 20 -197 32
-14 7 -67 79 -67 91 0 3 161 -20 209 -29z m39 -151 l93 -6 101 -169 c55 -93
98 -172 95 -175 -6 -6 -235 15 -248 22 -4 3 -35 50 -69 105 -33 55 -71 109
-83 120 -29 28 -71 37 -217 50 -177 14 -331 30 -357 36 -13 2 -23 12 -23 21 0
15 26 16 308 10 169 -4 349 -10 400 -14z m2242 -43 c248 -22 487 -105 693
-243 168 -112 377 -345 463 -514 45 -89 109 -287 124 -385 11 -67 11 -81 -3
-101 -15 -23 -63 -42 -71 -28 -2 3 -9 40 -16 81 -62 391 -263 696 -594 904
-172 108 -359 173 -583 202 -112 14 -133 14 -259 -1 -225 -27 -355 -69 -537
-171 -179 -102 -295 -210 -425 -401 -82 -119 -93 -129 -134 -116 -42 12 -40
27 17 118 61 97 161 219 241 295 194 181 521 325 814 359 106 12 140 12 270 1z
m8816 -15 c148 -22 291 -67 429 -134 369 -180 631 -491 731 -866 38 -146 58
-365 32 -365 -7 0 -29 -3 -49 -6 l-36 -6 -6 123 c-9 209 -80 426 -194 598 -80
121 -283 321 -389 384 -358 212 -794 264 -1164 137 -181 -63 -373 -174 -476
-278 -203 -203 -373 -529 -394 -755 -5 -49 -10 -90 -12 -92 -2 -1 -20 0 -41 3
-47 5 -54 27 -37 129 69 429 353 807 745 992 142 67 306 119 455 144 64 11
311 6 406 -8z m1054 -155 c30 -6 74 -23 99 -39 25 -16 60 -32 76 -35 17 -3
185 -13 375 -21 189 -9 346 -18 348 -20 3 -2 -7 -20 -22 -40 l-27 -35 -112 0
c-61 0 -195 5 -298 11 -253 15 -246 16 -185 -49 27 -29 47 -54 45 -56 -9 -9
-126 16 -151 32 -14 9 -83 72 -151 140 l-125 122 38 0 c20 0 61 -5 90 -10z
m-12445 -90 c77 -5 148 -10 157 -10 10 0 35 -16 56 -35 50 -44 67 -50 192 -65
58 -6 107 -13 108 -15 8 -8 62 -222 62 -244 0 -23 -2 -24 -62 -18 -35 4 -110
13 -168 21 -58 8 -175 19 -260 26 -242 17 -210 -3 -253 158 -20 77 -37 154
-37 172 0 31 1 32 33 26 17 -3 95 -10 172 -16z m2610 -130 c432 -48 770 -385
835 -829 18 -119 8 -327 -19 -412 -52 -164 -154 -339 -198 -339 -21 0 -16 15
41 123 30 56 70 145 87 197 31 88 33 104 33 232 1 75 -2 139 -6 143 -4 4 -42
3 -85 -4 -43 -6 -145 -20 -228 -31 -82 -11 -184 -25 -225 -31 -41 -5 -99 -11
-129 -12 -52 -2 -54 -1 -62 27 -5 17 -7 32 -4 34 7 8 559 121 668 137 46 7 48
9 42 34 -3 14 -32 80 -65 146 -65 134 -125 208 -259 319 -121 101 -312 182
-475 200 l-58 6 5 -62 c4 -35 9 -186 13 -335 l7 -273 -62 0 -61 0 0 336 0 335
-57 -6 c-113 -13 -286 -78 -399 -150 -76 -49 -184 -153 -240 -231 -52 -73
-134 -242 -137 -281 l-2 -28 310 -62 c170 -34 325 -68 344 -75 36 -14 55 -46
41 -69 -9 -14 -15 -14 -584 62 -77 10 -144 15 -149 12 -17 -10 0 -250 23 -332
24 -85 72 -193 118 -265 30 -47 42 -96 24 -96 -25 0 -108 118 -157 223 -57
119 -77 213 -77 357 -1 191 51 387 143 544 58 99 228 266 337 330 93 55 235
112 314 125 74 12 246 13 353 1z m8756 -5 c301 -45 576 -249 716 -530 116
-232 133 -489 49 -737 -47 -139 -150 -308 -187 -308 -17 0 -10 19 50 138 32
64 70 153 84 198 31 96 50 229 42 281 -15 91 -11 86 -63 79 -163 -24 -630 -86
-643 -86 -18 0 -31 33 -22 55 2 8 19 19 36 24 45 14 246 55 422 86 205 36 225
42 225 72 0 32 -43 138 -87 216 -88 156 -246 300 -408 372 -86 37 -203 72
-272 79 l-63 7 0 -336 0 -335 -55 0 -55 0 0 336 0 335 -57 -6 c-132 -15 -311
-82 -420 -156 -62 -42 -185 -161 -229 -220 -62 -85 -155 -293 -138 -309 5 -5
133 -33 284 -64 348 -71 389 -81 407 -99 23 -23 8 -57 -26 -57 -36 0 -199 23
-386 55 -82 14 -188 28 -234 32 l-84 6 7 -134 c11 -199 27 -263 102 -414 67
-136 73 -155 49 -155 -39 0 -162 224 -196 359 -19 74 -21 105 -17 265 4 181 4
181 44 297 107 309 306 514 599 616 150 53 340 66 526 38z m-11291 -285 c156
-12 472 -47 494 -56 8 -3 17 -13 19 -22 5 -26 -20 -128 -44 -174 l-21 -41
-136 6 c-134 7 -677 60 -737 73 -30 7 -30 7 85 115 132 125 103 117 340 99z
m740 -95 c213 -38 252 -47 257 -60 5 -14 -44 -184 -56 -198 -4 -4 -20 -3 -35
2 -34 13 -322 44 -358 38 -16 -2 -28 -3 -28 -2 0 10 60 226 65 234 8 14 -2 15
155 -14z m416 -84 c8 -4 2 -39 -22 -116 -18 -60 -38 -129 -44 -152 -10 -38
-14 -43 -40 -43 -42 0 -60 10 -60 33 0 11 16 72 36 135 54 174 49 165 87 157
17 -4 37 -10 43 -14z m-1370 -85 c239 -27 565 -58 798 -76 187 -15 314 -34
328 -48 9 -9 9 -20 2 -39 -9 -26 -13 -28 -64 -25 -30 1 -163 18 -295 37 -262
37 -512 71 -817 110 -229 29 -246 34 -221 58 10 10 32 9 269 -17z m13434 -52
c0 -45 31 -166 71 -280 21 -61 27 -90 20 -97 -7 -7 -97 -12 -238 -15 l-226 -5
41 49 c48 57 54 73 92 219 46 179 33 165 145 165 l95 0 0 -36z m-7050 -94 l0
-110 -477 -1 c-656 0 -1604 -15 -1627 -25 -13 -5 -17 -4 -13 3 13 21 333 142
515 194 140 41 227 45 1000 47 l602 2 0 -110z m2333 54 c70 -25 156 -56 190
-70 34 -14 139 -55 232 -90 l170 -63 -1420 1 c-781 0 -1400 4 -1375 9 25 4
522 8 1105 8 583 1 1166 4 1295 9 232 7 234 7 110 13 -69 4 -671 10 -1337 14
l-1213 8 0 110 0 109 1058 -7 1057 -8 128 -43z m-8718 -44 c203 -27 638 -90
865 -125 52 -8 160 -24 240 -36 80 -12 151 -28 159 -35 25 -23 5 -44 -42 -44
-27 0 -49 -6 -57 -15 -7 -8 -21 -81 -32 -162 -10 -81 -21 -150 -24 -152 -3 -3
-2 72 2 166 l7 172 -24 5 c-32 7 -413 65 -764 116 -433 63 -589 90 -604 105
-22 22 -6 45 26 40 15 -3 127 -19 248 -35z m2769 -101 c45 -54 25 -70 -25 -20
-16 16 -29 34 -29 40 0 21 29 11 54 -20z m6906 -47 l95 -37 -135 -3 c-74 -1
-146 0 -159 3 -22 6 -23 9 -16 53 4 26 9 50 11 54 3 4 28 -2 57 -13 29 -11 95
-37 147 -57z m-7212 33 c-40 -37 -58 -44 -58 -21 0 20 48 56 74 56 18 -1 16
-5 -16 -35z m8749 18 c-9 -10 -29 -26 -46 -36 -26 -15 -31 -16 -31 -3 0 18 49
55 74 56 18 0 18 -1 3 -17z m282 -9 c29 -24 41 -54 23 -54 -4 0 -26 18 -47 40
-45 46 -27 57 24 14z m-5279 -63 c348 -13 -596 -23 -1308 -15 -568 7 -650 10
-442 14 365 8 1555 8 1750 1z m5144 -5 c71 -30 89 -109 37 -165 -40 -43 -96
-43 -140 -2 -52 49 -41 118 26 163 34 22 35 22 77 4z m-8685 -31 c36 -36 35
-95 -2 -132 -38 -38 -113 -40 -151 -4 -47 44 -25 135 38 162 33 14 88 2 115
-26z m-2771 -85 c177 -26 279 -54 352 -99 89 -54 237 -174 221 -179 -31 -10
-144 32 -219 83 -126 85 -152 95 -345 131 -99 18 -184 37 -190 43 -15 15 0 41
25 41 13 0 83 -9 156 -20z m4591 -5 l56 -25 907 -2 c906 -3 954 -5 924 -35 -4
-5 -417 -9 -918 -11 l-910 -2 -58 35 c-103 63 -104 85 -1 40z m4851 -60 l0
-36 -112 7 c-62 3 -706 9 -1430 13 -724 3 -1320 9 -1324 14 -4 4 -4 10 0 15
14 14 359 18 1614 20 l1252 2 0 -35z m423 19 c166 -6 220 -10 229 -21 18 -22
-1 -32 -67 -35 -72 -4 -77 -11 -98 -139 l-15 -84 -1 113 -1 112 -167 0 c-187
0 -213 4 -213 31 0 27 29 40 75 34 22 -2 138 -8 258 -11z m-5472 -32 c30 -16
104 -57 166 -90 l112 -62 906 0 905 0 0 -40 0 -40 -767 0 c-813 1 -1047 8
-1128 36 -27 9 -82 39 -123 66 -86 58 -188 108 -220 108 -32 0 -42 -34 -42
-142 0 -50 -2 -89 -5 -87 -2 3 -9 47 -15 98 -14 126 -17 131 -88 131 -64 0
-88 10 -79 34 6 14 29 16 166 16 156 0 160 -1 212 -28z m6859 -2 c0 -6 21 -33
46 -60 l45 -49 -73 -93 c-41 -51 -125 -163 -188 -248 -148 -201 -203 -270
-215 -270 -6 0 -30 20 -54 44 l-44 45 79 84 c43 46 106 114 139 153 33 38 104
119 158 180 97 112 108 134 86 175 -6 12 -8 27 -5 35 6 16 26 19 26 4z m-8684
-52 l53 -53 -212 -281 c-240 -319 -244 -324 -267 -324 -24 0 -84 65 -74 82 8
14 139 171 321 385 137 162 138 164 118 202 -31 60 -8 56 61 -11z m9054 30
c-1 -13 -7 -34 -14 -47 -13 -23 -7 -31 148 -205 208 -233 306 -348 306 -362 0
-14 -38 -48 -76 -67 -38 -19 -26 -31 -149 143 -49 69 -144 198 -212 287 l-123
161 53 56 c28 30 55 55 60 55 4 1 7 -9 7 -21z m2064 5 c4 -9 2 -19 -4 -23 -15
-10 -136 -18 -362 -26 -171 -7 -188 -6 -188 9 0 10 -1 20 -2 25 -2 4 94 12
212 18 332 17 337 17 344 -3z m-10799 -31 c-6 -35 -2 -44 36 -93 45 -57 179
-210 343 -391 l97 -107 -52 -41 c-28 -22 -55 -40 -59 -40 -5 0 -55 62 -111
137 -125 168 -266 349 -331 424 -26 31 -48 59 -48 62 0 2 13 10 29 17 16 6 41
25 57 41 37 39 47 37 39 -9z m10112 12 c13 -4 34 -28 51 -58 53 -92 46 -90
239 -77 92 7 224 16 292 22 131 11 161 5 130 -27 -20 -19 -134 -30 -424 -39
l-220 -7 -56 70 c-58 71 -103 97 -120 70 -5 -7 -9 -57 -9 -110 0 -54 -4 -98
-9 -98 -8 0 -21 102 -21 173 0 32 -3 37 -22 37 -34 0 -98 20 -98 30 0 5 12 11
28 13 44 7 215 7 239 1z m-3569 -156 l3 -38 -1430 0 -1431 0 0 40 0 40 1428
-2 1427 -3 3 -37z m-7390 -58 c28 -44 52 -84 52 -89 0 -5 -6 -14 -14 -20 -8
-7 -24 -32 -35 -57 -12 -24 -25 -44 -30 -44 -9 0 -113 176 -125 210 -5 15 67
78 89 79 6 0 34 -35 63 -79z m1428 50 c24 -17 44 -38 44 -47 0 -9 -21 -52 -46
-97 -75 -129 -66 -123 -108 -70 -22 29 -36 58 -36 76 0 39 66 168 86 168 8 0
35 -14 60 -30z m7302 -47 c60 -86 60 -82 -1 -166 l-34 -48 -40 63 c-62 96 -96
158 -90 164 13 14 93 62 102 63 6 0 34 -34 63 -76z m1413 50 c64 -46 64 -49
-24 -186 -56 -89 -56 -89 -106 2 l-29 54 35 56 c20 31 42 66 49 79 18 28 28
28 75 -5z m1062 -70 c-7 -2 -21 -2 -30 0 -10 3 -4 5 12 5 17 0 24 -2 18 -5z
m-4098 -133 l-90 -30 -2030 1 c-1117 0 -2113 4 -2215 9 -144 6 -197 13 -240
28 l-55 21 2360 0 2360 0 -90 -29z m-6741 -294 c61 -19 124 -38 140 -41 19 -4
32 -15 39 -35 13 -34 12 -33 122 -31 98 3 111 6 118 31 6 23 17 28 164 69 126
35 155 38 173 16 20 -24 -19 -58 -108 -93 -113 -45 -213 -62 -354 -62 -139 0
-265 22 -367 64 -94 38 -122 71 -89 104 18 18 41 15 162 -22z m8724 -6 c71
-22 137 -40 146 -40 9 0 21 -12 27 -27 14 -39 25 -43 105 -43 104 0 128 7 141
40 9 24 19 30 68 40 31 6 89 23 128 36 88 30 123 31 137 3 16 -29 2 -42 -88
-80 -149 -62 -162 -64 -367 -64 -126 0 -205 5 -235 13 -65 19 -201 71 -232 90
-26 15 -27 16 -10 44 9 15 24 28 33 28 9 0 75 -18 147 -40z"/>
<path d="M4260 4320 c-121 -17 -146 -45 -144 -162 2 -88 22 -134 69 -157 23
-11 48 -12 144 -2 137 14 247 36 268 53 22 18 9 247 -15 266 -18 13 -226 15
-322 2z m295 -120 c5 -63 4 -95 -4 -104 -19 -22 -98 -38 -228 -43 l-121 -6
-11 39 c-14 49 -14 129 -1 154 14 27 125 46 281 49 l77 1 7 -90z"/>
<path d="M6200 4210 c-151 -7 -179 -14 -206 -55 -38 -58 16 -126 116 -145 63
-13 432 -4 492 11 95 24 106 150 15 177 -44 14 -243 19 -417 12z m366 -63 c18
-17 -19 -22 -194 -25 -218 -4 -292 2 -292 25 0 13 29 15 239 11 132 -2 243 -7
247 -11z"/>
<path d="M6105 3621 l39 -41 1052 0 c579 0 1059 3 1068 6 22 9 20 31 -4 39
-60 19 -333 26 -1215 31 l-980 6 40 -41z"/>
<path d="M8914 4178 c-41 -44 -45 -59 -27 -97 29 -59 52 -64 317 -69 283 -5
336 2 367 51 24 40 18 82 -16 117 l-25 25 -293 3 -292 3 -31 -33z m566 -28 c8
-5 11 -13 6 -17 -10 -10 -502 -10 -512 0 -5 4 -2 12 6 17 19 13 481 13 500 0z"/>
<path d="M9285 3653 c-16 -2 -54 -11 -83 -19 -89 -25 -62 -38 94 -45 182 -8
2212 -11 2242 -3 32 9 23 25 -24 42 -29 10 -130 16 -404 22 -361 9 -1767 11
-1825 3z"/>
<path d="M2765 1451 c-35 -7 -46 -38 -19 -58 21 -16 78 -17 105 -3 21 12 26
49 7 54 -32 10 -65 13 -93 7z"/>
<path d="M1949 1434 c-9 -11 -10 -20 -2 -32 8 -14 30 -18 107 -20 98 -3 136 7
136 33 0 25 -37 35 -133 35 -74 0 -97 -3 -108 -16z"/>
<path d="M2359 1434 c-9 -11 -10 -20 -2 -32 8 -13 28 -18 89 -20 102 -4 124 2
124 32 0 31 -15 36 -115 36 -63 0 -86 -4 -96 -16z"/>
<path d="M3025 1430 c-10 -32 12 -50 59 -50 47 0 66 13 66 47 0 21 -4 23 -59
23 -51 0 -61 -3 -66 -20z"/>
<path d="M15450 1427 c0 -31 18 -47 55 -47 64 0 92 20 79 55 -5 11 -22 15 -70
15 -60 0 -64 -1 -64 -23z"/>
<path d="M15753 1443 c-22 -8 -14 -39 12 -51 39 -18 186 -15 213 4 26 18 29
39 6 48 -19 7 -213 7 -231 -1z"/>
</g>
</svg>
